<?xml version="1.0" encoding="UTF-8"?>
<svg id="Layer_1" data-name="Layer 1" xmlns="http://www.w3.org/2000/svg" viewBox="0 0 24 24">
  <path d="M22.49,8.41c-.76,1.19-1.54,2.99-2.34,4.39-.19.33-.2.8-.38,1.05-.26.35-1.09.45-1.44.89-.32.41-.27,1.03-.47,1.23-.26.26-.98.12-1.32.38s-.26.92-.55,1.11c-.43.29-1.45.52-1.91.74-.27.13-.26.46-.43.5-.93.23-2.11.37-3.19.63-.96.23-2.78-.34-3.73-.68-.25-.09-.4-.39-.62-.45-1.81-.55-3.58,2.63-4.83,3.54-.53.39-.77.18-.76-.44,0-.69,1.07-1,1.53-1.4.35-.3,2.52-2.45,2.62-2.69.34-.83.05-2.17.14-3.1.08-.77.49-2.05.85-2.74.28-.53.51-.95.8-1.53s.65-1.12.88-1.73l.69.17c.19-.56,1.08-2.12,1.58-2.3.92-.32,1.14-.56,1.94-1.29.15-.13.24-.35.26-.55h.26s.27.54.27.54h.26c.32-.86.9-.7,1.3-.95s.58-1.14,1.22.05c.37-.19.62-.93.93-1.04.23-.08.55,0,.82-.07.25-.07.35-.4.67-.32l.36.54c-.03-.72.57-.87,1.21-.85.39.01.49.44.67.45.15.01.43-.33.72-.31.47.02.41.07,1.04.06.74-.02,1.22.29,1.92.2.24.15,0,1.61-.04,1.94-.12.77-.76,2.15-.83,2.59-.08.52.37.71-.1,1.43Z"/>
</svg>