<?xml version="1.0" encoding="UTF-8"?>
<svg id="Layer_1" data-name="Layer 1" xmlns="http://www.w3.org/2000/svg" viewBox="0 0 24 24">
  <path d="M22.9,5.58s.32-.04.35.31c.01.11-.25,1.98-.29,2.17-.17.76-.39,1.51-.85,2.15l.37.36c-.42.48-.76,1.04-1.02,1.62-.33.74-.61,2.11-1.17,2.93-.23.33-1.25,1.07-1.32,1.2-.04.08.17.35.06.53-.06.09-1.51,1.13-1.73,1.28-2.28,1.52-4.62,2.36-7.44,1.7-1.1-.26-2.81-1.39-3.87-1.21-.63.1-1.39,1.02-1.99,1.39-1.06.64-2.22,1.12-3.25,1.81l-.37-.19c-.01-.09.34-1.11.42-1.17.18-.15,2.22-.81,2.83-1.2,2.51-1.61,1.49-1.95,1.11-4.23-.22-1.34-.3-2.3.01-3.64s1.86-3.77,2.78-4.91c.52-.64,3.32-2.98,3.91-3.21.24-.1.49.09.73,0,.76-.32,1.65-.93,2.44-1.14.49-.13.48-.17.66.3,1.14-.95,2.53-1.05,3.95-.94.35.03.57.27.74.28.59.04,3.09-.13,3.38.28.16.43-.26.8-.28,1.24-.02.34.19.67.17,1.08-.02.31-.37,1.11-.32,1.21Z"/>
</svg>