<?xml version="1.0" encoding="UTF-8"?>
<svg id="Layer_1" data-name="Layer 1" xmlns="http://www.w3.org/2000/svg" viewBox="0 0 24 24">
  <path d="M23.72.67c-1.94,1.48-1.56,3.04-2.01,5.04-.81,3.64-1.56,6.72-4.41,9.34-.38.34-5.33,2.82-5.93,2.99-2.52.7-4.97.11-7.35,1.4-1.39.75-2.07,2.84-2.79,4.18-.14.1-.94-.5-.76-.92.41-.97,2.09-2.54,2.32-3.41.84-3.13-.47-5.79,1.32-9.22.56-1.06,1.01-1.98,1.55-3.09C7.14,3.88,10.83,1.78,14.17,1.38c.68-.08,1.46.09,2.13-.01.53-.08.97-.47,1.62-.53.93-.08,2.06.36,2.89.31.42-.03,1.07-.63,1.58-.66.4-.02.88.27,1.33.17Z"/>
</svg>