<?xml version="1.0" encoding="UTF-8"?>
<svg id="Layer_1" data-name="Layer 1" xmlns="http://www.w3.org/2000/svg" viewBox="0 0 24 24">
  <path d="M15.24,1.44c.67.47.82.07,1.53.3.17.05,1.16.61,1.5.64.43.04.61-.44.83.17l4.27-.17c-.3.51-.98.71-1.3,1.21-.77,1.21-.15,3.72-.15,5.19,0,.57-.43,1.17.15,1.28l-.5,1.15.33.46-.64.67v.32s.33.16.33.16v.32c-.86.12-.55,1.65-.83,2.01-.07.09-.65.05-.76.22-.18.26.08.94-.84.94-.05.22.67.17.16.4-1.02.47-1.57,1.12-2.44,1.45-.27.1-.52.11-.8.09l.16.48h-.97s.16.49.16.49l-1.2-.34-.17.34-.81-.49c.03.41-1.23.31-1.55.23-.57-.14-.63-.52-.84-.6s-.54.03-.61-.03c-.2-.15-.24-.75-.41-1.04-.26-.44-.85-.72-.96-1.31-1.06.81-1.78,1.99-2.75,2.92-1.46,1.4-3.22,2.4-4.78,3.65-.19.08-.9-.41-.64-.73.06-.07,1.27-.55,1.6-.75,1.44-.9,3.35-2.3,4.49-3.53.17-.18,1.3-1.57,1.33-1.67.22-.79-2.02-.57-2.52-1.07-.08-.08-.05-.32-.14-.42-.16-.19-.42-.22-.52-.46-.15-.36-.82-2.14-.85-2.41-.03-.3.3-.19.33-.34.09-.4-.21-.8-.17-1.09.01-.11.3-.09.33-.21.09-.36-.05-.87,0-1.26l.48-.1c-.21-1.05.83-1.17.67-2.26l.48.16.16-.98.49.09c.06-.9.51-.64.72-.9.12-.14.09-.47.24-.57.09-.06.35.11.49,0,.6-.43.26-.15.66-.33.35-.15.27-.93.95-.57l.18-.65c.67.37.84-.22,1.31-.39.29-.1.85-.12,1.15-.27.18-.09.23-.79.53.02l.65-.33.16.33c.07-.18,1.29-.5,1.35-.45Z"/>
</svg>