<?xml version="1.0" encoding="UTF-8"?>
<svg id="Layer_1" data-name="Layer 1" xmlns="http://www.w3.org/2000/svg" viewBox="0 0 24 24">
  <path d="M23.48.7c-.68.51-.68,1.19-.99,1.76-1.28,2.36-1.73,3.39-2.06,5.93-.12.9-.91,1.9-1.22,2.69-.18.45-.08,1.01-.25,1.35-.11.23-.56.35-.78.65-.33.43-.27,1-.43,1.26-.11.17-.76.41-1,.87-.21.42-.14.95-.23,1.1-.07.11-1.23.45-1.49.73-.31.33-.21.83-.43.99-.25.19-1.21.23-1.6.71-.24.3-.1.68-.28.82-.28.2-1.41.44-1.84.61-.96.4-2.03,1.03-3.06,1.38-1.79.61-3.39-.08-5.18-.22l-1.55,1.85c-1.55-.55,1.02-2.1,1.21-2.71.16-.53-.03-1.3.06-1.9.26-1.79.81-2.41,1.49-3.84.21-.45.58-2.19.65-2.28.04-.05.66-.13,1.03-.48.64-.59,1.03-1.97,1.52-2.41.2-.18.42,0,.61-.09.79-.4.99-1.76,1.11-1.83.14-.09.69-.01,1.11-.23.6-.31.87-1.31,1.18-1.5.18-.11.5.1.83-.03.36-.14.62-.64,1-.81.29-.13.57.02.89-.14,1.07-.57.45-.48,1.95-.91.32-.09.53-.59.88-.72,1.37-.52,2.83-1.06,4.25-1.61.87-.33,1.73-.84,2.63-1.01Z"/>
</svg>