<?xml version="1.0" encoding="UTF-8"?>
<svg id="Layer_1" data-name="Layer 1" xmlns="http://www.w3.org/2000/svg" viewBox="0 0 24 24">
  <path d="M23.71.69c-.17.5-1.14,1.22-1.3,1.57-.12.28-.04.63-.19.87-.11.18-.99.36-.08.78l-.87.88.35.35c-.8.41-.49.95-.62,1.31-.07.19-.46.39-.52.68-.04.2.41.69-.25,1.32l.36.17c-.47.35-.33,1.26-.43,1.48-.6,1.32-2.31,3.38-2.79,4.54-.06.16.11.4.06.49-.05.07-1.1.89-1.31,1.06-.4.33-.76-.09-.41.71-.29.02-.92.17-1.11.34-.39.34-.19.27-.87.74-.37.26-2.33,1.84-2.51,1.88-.55.12-.9-.23-1.2.54l-1.02-.37-.19.37c-.18,0-1.84-.87-2.04-1.05-.39-.35-.36-1.05-.89-.85-1.38,1.92-3.42,3.03-5.52,3.99-.2-1.46.35-1.05,1.27-1.43,1.32-.55,3.57-1.85,3.59-3.43-1.68-.67-2.19-2.59-1.89-4.28.2-1.12,1.61-4.44,2.17-5.32.27-.42,3.05-3.42,3.43-3.64.22-.12.58.05.8-.07.1-.05.21-.58.56-.74,1.13-.52,2.69-1.53,3.82-1.91.34-.11,1.05.2,1.49-.45l.18.36,1.03-.37.34.37,1.15-.53.09.52c.69-.78,1.06-.17,1.4-.17.2,0,1.82-.14,2.07-.18.62-.11,1.22-.46,1.85-.51Z"/>
</svg>