<?xml version="1.0" encoding="UTF-8"?>
<svg id="Layer_1" data-name="Layer 1" xmlns="http://www.w3.org/2000/svg" viewBox="0 0 24 24">
  <path d="M21.94,13.12c-1.81,3.75-4.6,6.92-8.84,8.03-2.74.71-5.42.65-7.95-.7-.31.03-1.4.99-1.8,1.2-.75.4-3.23,1.77-2.84.12,1.02,0,3.72-1.37,4.08-2.24.15-.35-.24-1.3-.25-1.77-.01-3.34.58-5.39,2.57-8.02,1.14-1.5,1.86-2.09,3.35-3.18.35-.25.87-1,1.13-1.12.27-.12.53.14.7.07.04-.02.2-.39.6-.61,1.86-.99,3.74-1.98,5.88-2.16.79-.07,3.22.26,3.64.08.74-.32.59-1.05,1.28-1.38.18.66-.19,1.41-.19,1.97.01,3.35.13,6.61-1.37,9.72Z"/>
</svg>