<?xml version="1.0" encoding="UTF-8"?>
<svg id="Layer_1" data-name="Layer 1" xmlns="http://www.w3.org/2000/svg" viewBox="0 0 24 24">
  <path d="M23.69.47c.09.67-.11,1.25-.28,1.88-.31,1.16-.8,2.62-1.2,3.76-1.19,3.41-3.85,10.19-6.6,12.45-2.85,2.34-7.73,1.63-8.09-2.57-.41-.35-2.44,1.7-2.8,2.08-1.42,1.49-2.47,3.43-3.76,4.88-.17.2-.33.46-.64.4-.29-1.22.53-1.41,1.12-2.16,1.12-1.42,2.19-2.91,3.44-4.24.36-.38,1.56-1.23,1.65-1.55.28-.92-.78-1.04-1.33-1.49-2.1-1.69-.51-5.07,1.12-6.57,2.03-1.86,4.34-2.03,6.82-2.63.93-.22,1.8-.86,2.83-1.01.78-.12,1.49-.05,2.34-.22.7-.14,3.17-.71,3.66-.98.1-.06,1.2-1.12,1.25-1.19.21-.34-.05-.96.47-.85Z"/>
</svg>