<?xml version="1.0" encoding="UTF-8"?>
<svg id="Layer_1" data-name="Layer 1" xmlns="http://www.w3.org/2000/svg" viewBox="0 0 24 24">
  <path d="M21.44,4.74c-.3.35,0,.71-.13.95-.14.27-.71.4-.85.67-.17.33.14.61.07.8-.02.04-.45.3-.64.61-.17.28-.16.59-.33.84-.22.33-.96.79-1.09,1.09-.12.26.08.53,0,.66-.11.21-.9.45-1.16.84-.28.42-.06.93-.09.97-.03.04-.6.14-.81.28-.62.4-1.02,1.02-.68,1.73-.51-.08-1.27.31-1.51.74-.2.35-.13.88-.17.92-.06.07-1.07,0-1.57.85-.11.19-.04.53-.12.62-.04.05-.6.12-.89.36-.36.3-.37.74-.45.8-.09.08-.57.07-.86.22-.43.22-.69.87-.81.94-.23.13-.98.08-1.41.32-.26.15-.27.43-.48.51-.14.05-.72-.08-1.03,0-.85.18-1.64.58-2.53.63-.35.17-1.52,2.01-1.92,2.4-.14.13-.15.24-.4.18l-.5-.75c.6-.59,1.98-1.69,2.13-2.54.07-.37-.14-.73-.15-1.12-.01-1.02-.12-2.56,0-3.51.05-.37.4-.26.49-.51.12-.35-.06-1.65.02-1.73l.64-.02.7-2.14c.89.55,1.11-1.6,1.35-1.8.1-.08.48,0,.82-.27.45-.35.76-1.5.85-1.56.14-.1.6-.03.86-.18s.33-.93.61-1.11c.26-.16.81.29,1.5-.65.16-.22.14-.57.16-.59.03-.03.36.26.79.05.37-.18.49-.7.7-.8.12-.05.53.09.85.02.62-.14.61-.53.68-.57.07-.03.33.15.52.11.36-.07.64-.49.93-.55.24-.05.5.12.86.01s.79-.73.91-.73.23.33.59.23c.67-.17,1.04-1.27,1.72-.62l.86-.82.18.35c1.01-.19,1.76-.52,2.15-1.51.31.69-.17,1.34-.37,1.96-.16.5-.39.9-.48,1.2s.13.63.03.84-.43.25-.55.38Z"/>
</svg>