<?xml version="1.0" encoding="UTF-8"?>
<svg id="Layer_1" data-name="Layer 1" xmlns="http://www.w3.org/2000/svg" viewBox="0 0 24 24">
  <path d="M23.52,2.53c-.84.86-.7,1.99-.95,3.04-.06.25-.22.44-.3.67-.12.37.11,1.06-.72,1.19l.02.31.29.24c-.15.24-.23.54-.4.75-.16.18-.46.1-.4.33,1.06.37-.26.56-.41.82-.24.41-.18,1.34-.9,1.72l.49.25v.24c-.47.47-.66.9-1.3,1.15l.49.49c-.8.2-.51.89-1.31.9l.33.57c-.63.23-.4,1-1.15.9l.33.81c-.42.08-1.01.15-1.25.55-.11.18.02.41-.16.62-.22.25-1,.52-1.36.48l-.02.63c-.11.15-1.1.12-1.34.19-.14.04-.11.29-.23.32-.33.08-.76-.04-1.11,0l-.09.49-1.46-.15v.49c-.53-.11-1.4-.64-1.57,0-.54.09-.85-.55-1.16-.63-.2-.05-.44.11-.6.08-.91-.18-2.06-1.39-2.19-1.41-.62-.13-1.31.27-1.92.32-.9.08-1.82-.14-2.69.16.03-1.47,2.02-.67,3.17-.83.36-.05,1.16-.32,1.33-.64.29-.54-.35-.67-.5-.98-.17-.36.14-2.8.35-3.23.23-.47.84-1.32,1.07-1.88.19-.45.21-1.11.47-1.5.19-.28.49-.1.56-.23.13-.26,0-.61.11-.8.04-.06.59-.31.79-.6.36-.53-.17-.67.81-.41.06-.69.6-1.16.9-1.8l.32.33,1.31-1.47.56.33c.12-.44,1.25-1.55,1.23-.49l1.15-.98.32.49,1.15-.81.32.49,1.39-.65.08.49c.14-.12.25-.32.42-.4.64-.29,1.54.23,2.2-.42l.16.34c.54-.23.87-.49,1.46-.17.15-.5.29-.16.58-.24.45-.13.83-.43,1.31-.42Z"/>
</svg>