<?xml version="1.0" encoding="UTF-8"?>
<svg id="Layer_1" data-name="Layer 1" xmlns="http://www.w3.org/2000/svg" viewBox="0 0 24 24">
  <path d="M22.98.48l-.61,1.76c.27,4.11-2.32,7.35-3.42,11.04-.47,1.57-.89,2.04-1.73,3.41-.27.44-.41,1.3-.45,1.37-.34.52-2.66,2.51-3.2,2.82-.34.2-1.04.21-1.4.35-1.18.47-2.16,1.24-3.7,1.31-1.26.06-2.7-.15-3.73-.92-.28-.21-.98-1.25-1.38-1.21-.82.07-1.47,2.38-1.62,3.11l-.64.02c-.4-1.37,1.5-2.99,1.5-4.07,0-.65-.79-1.46-1.04-2.13-.7-1.89.11-4.28,1.03-5.97.06-.12.3-.12.38-.32.24-.56.4-.97.86-1.46.09-.1.7-.7.74-.73.17-.11.48.03.63-.13s.15-.59.22-.63.35.15.49.08c.24-.11.28-.52.35-.57.1-.07.4.2.64.08s.31-.57.5-.67c.22-.13,2.94-1.16,3.14-1.17s.35.21.43.21c.16-.01.31-.39.67-.45.55-.1.89.31,1.08.27.22-.05,1.15-.7,1.4-.7.64.02.48.09,1.35,0,1.36-.15,2.88-.06,4.02-.82,1.2-.8,1.73-2.35,2.67-3.42.11-.12.71-.58.83-.46Z"/>
</svg>