<?xml version="1.0" encoding="UTF-8"?>
<svg id="Layer_1" data-name="Layer 1" xmlns="http://www.w3.org/2000/svg" viewBox="0 0 24 24">
  <path d="M18.11,1.58c.21.64,1.68.05,2.4.13.31.03.1.17,1.05.21.26.01.47.33.86.35s.75-.22,1.14-.19c.15.17-.67,3.08-1.03,3.43l.32.49c-.2.58-.84.85-1.05,1.4-.19.49-.1.93-.21,1.37-.21.84-.98,2.07-1.88,2.23l.02.33.34.12c.12.7-1.16,1.92-1.67,2.34-1.99,1.63-4.69,2.96-7.21,3.45-1.47.29-3.54.24-4.91.69-1.13.37-2.87,1.78-4.1,2.37-.27.13-1.73.81-1.87.66-.02-1.31.79-1.03,1.52-1.36,6.1-2.75,3.69-8.37,7.39-12.19.38-.4,2.93-3.06,3.19-3.2.54-.29.35-.05,1.09-.57,1.4-1,2.96-1.15,4.38-2.1l.23.03Z"/>
</svg>