<?xml version="1.0" encoding="UTF-8"?>
<svg id="Layer_1" data-name="Layer 1" xmlns="http://www.w3.org/2000/svg" viewBox="0 0 24 24">
  <path d="M21.68.36c-.98,1.44-1.03,3.4-.48,5.03.22.64.71,1.12.87,1.75-1.69-.21-2.71,3.92-.97,4.17-.43.37-.98.35-1.49.64-1.35.78-3.33,2.86-2.38,4.49-1.1-.07-4.02,1.73-4.07,2.83-.03.51.42.6.39,1.05-2.24-.35-4.43.91-6.7,1.14-1.01.1-2.03-.06-3.04.06-.64.19-1.63,2.48-2.25,2.08-.95-1.39,1.39-2.26,1.54-3.2.12-.74-.42-2-.4-2.88.06-2.53,2.02-4.13,1.75-6.5,2.66.27,3.75-3.24,3.49-5.42,1.33,1.07,2.69.13,3.37-1.18.35-.67.3-1.3.6-1.92.75,1.34,4.4-.27,4.55-1.74.37.06.23.59.71.74.35.11,1.31.08,1.71.04,1.09-.12,1.83-.79,2.81-1.16Z"/>
</svg>