<?xml version="1.0" encoding="UTF-8"?>
<svg id="Layer_1" data-name="Layer 1" xmlns="http://www.w3.org/2000/svg" viewBox="0 0 24 24">
  <path d="M23.57,1.51l-1,1.41c-1.82,1.06-1.02,2.95-1.84,4.51l.32.46c-.09.44-.72,1.13-.81,1.36-.18.44.68.05.5.5-.05.11-.32.24-.4.43-.27.59-.24,1.15-.93,1.57l.5.16-1.58,2.09c.13.64-.52,1.21-.96,1.77-.12.15-.44.2-.54.38-.12.24.16.57.09.66-.06.08-1.39.48-1.46.56-.12.14.15.6-.53.46.37.72-.83.95-1.39,1.35-.21.15-.31.48-.44.56-.27.16-.7.01-.81.11-.07.06-.01.45-.18.57-.23.17-.71-.03-1.02.16-.11.07-.11.37-.28.42-.31.08-.76-.08-1.1,0-.12.03-.1.3-.23.33-.68.15-2.5.45-3.27.28-1.04-.23-.85-1.25-2.55-.48-.77.35-3.03,2.43-3.22.7,1.21-.17,2.27-.84,3.25-1.5.05-.79-.34-1.41-.27-2.25.04-.47.31-1.06.44-1.57.22-.88.13-.42.4-.96.13-.27.07-.72.33-.97l.5.1.17-1.17.33.17.08-1.35c.76,0,.49-.51.75-.86.28-.38.83-.73,1-1.38l.66.1c.03-.14.04-.35.12-.46.65-.91,1.64-2.27,2.54-2.97.42-.33,1.06-.44,1.44-.73.18-.14.21-.45.26-.49.1-.07.39.19.64.08.2-.09.45-.52.79-.72.42-.24,1.17-.32,1.54-.48,1.32-.55,2.72-1.41,4-1.97.37-.16,1.46-.59,1.42-.08l2.74-.84Z"/>
</svg>