<?xml version="1.0" encoding="UTF-8"?>
<svg id="Layer_1" data-name="Layer 1" xmlns="http://www.w3.org/2000/svg" viewBox="0 0 24 24">
  <path d="M22.94,1.5c.15-.12.19-.41.37-.54.59,1.34-.74,3.02-.92,4.34-.12.91.21,1.9,0,2.81l.41.23c-.51.58.03,1.51-.07,2.41-.05.44-.81,1.13.05,1.16l.02.39c-1.21.3-.41,1.17-.4,1.52,0,.39-.52.56-.58.85-.12.5.63,1.28-.64,1.48l.4.8-1.01.21c.42.67-.24.77-.51,1.22-.13.22-.04.6-.15.75-.1.14-.56.16-.78.35-.17.15,0,.44-.19.59-.29.23-1.24.43-1.37.58-.09.11,0,.42-.08.5-.11.11-.66.07-.94.18s-.32.75-1.25.49l-.02.56-1.4.03.2.6c-.39.07-.6-.3-.95-.37-.49-.09-.89.41-1.37-.44l-.31.6-.71-.41-.19.37c-2.12-.31-5.29.8-5.48-2.4-.34,0-.65.3-.91.5-.78.61-2.33,3.27-2.83,1.53.31-.01.51-.2.71-.4.34-.32,2.1-1.97,1.91-2.23-.71-.18-1.5-1.13-1.76-1.79-.18-.45-.08-1-.19-1.25-.44-1.01-1.53-2.12-1.5-3.35.01-.41.35-.65.33-.91s-.35-.65-.33-.88c.01-.17.49-.15.59-.44.16-.45-.05-1.2.03-1.7l.6.2c0-1.16.88-1.7.81-2.84l.6.2c.05-.28.1-1.03.26-1.18.17-.16,1.07-.74,1.33-.97,1.39-1.2,4.64-3.23,6.49-3.64.37-.08.88.2,1.31-.09l.21.41c.7-.78,2.41-.38,3.38-.14,1.2.29,2.27.82,3.49.97,1.63.2,1.97.2,3.28-.9Z"/>
</svg>