<?xml version="1.0" encoding="UTF-8"?>
<svg id="Layer_1" data-name="Layer 1" xmlns="http://www.w3.org/2000/svg" viewBox="0 0 24 24">
  <path d="M23.25,2.03c-.39,2.09-1.16,4.18-2.22,6.03-.77,1.34-.78,1.49-1.3,3-1.12,3.22-2.29,5.52-5.26,7.53-1.09.73-2.04,1-3.15,1.5-.17.08-.15.33-.44.44-.4.16-2.21.16-2.66.09-.87-.14-1.58-.72-2.38-1.04-.98.68-1.94,1.36-3.05,1.84-.74.32-2.26,1.15-2.27-.13,1.06.23,4.76-1.47,4.83-2.44.05-.74-.83-1.62-.87-2.22-.06-.96,1.66-4.54,2.29-5.43,1.91-2.69,5.46-3.83,8.43-4.83,3.15-1.06,4.83-1.07,7.26-3.74.09-.1.65-.74.79-.59Z"/>
</svg>