<?xml version="1.0" encoding="UTF-8"?>
<svg id="Layer_1" data-name="Layer 1" xmlns="http://www.w3.org/2000/svg" viewBox="0 0 24 24">
  <path d="M21.82,4.79c.2.44.42,1.16.68,1.64.07.13.36.13.39.28.07.29-.17.79-.15.83.04.06.36.05.44.28.04.12.28,1.14.31,1.29.02.09-.24,1.52-.22,1.72.02.16.31.3.24.6-.04.19-.32.35-.38.58-.05.18.13.43,0,.66s-.48.26-.53.36c-.1.18.01.51-.11.77-.1.22-.47.25-.58.43-.14.23.07.54-.12.77-.24.28-.75.25-.98.47-.19.18-.19.58-.39.74-.23.18-.59.08-.7.18-.09.07-.05.45-.25.62s-.6.12-.89.23c-.17.07-.27.4-.54.37-.25-.02-.51-.41-.7-.44-.24-.03-.35.38-.85.24-.66-.2-.68-1.21-1.42-1.03l-.26.45c-.77-.29-1.48-2.73-2.21-2.54-.42.3-.67.69-1.12.97-1.78,1.12-4.49,1.87-6.41,2.87-1.44.75-2.93,1.83-3.94,3.11l-.64-.09c-.15-.19.48-.74.64-.88,2.93-2.79,6.82-3.26,9.86-5.32.44-.3,1-.84,1.01-1.38.01-.9-1.94-.99-2.31-1.86-.19-.43-.25-1.59-.44-2.11-.15-.39-.66-.74-.6-1.16l.63-.34c-.08-.63-.41-1.19-.06-1.82.2-.36.86-.03.72-1.12h.63c0-.35.16-1.08.4-1.29s.54-.1.69-.19c.12-.08.14-.56.35-.69.54-.35.42.36.72.25l.51-.65c.72.41,1.09-.21,1.43-.26,1.64-.25,3.75.25,5.51.2.85-.02,1.29-.56,1.9-1.04-.05.87-.63,2.51-.27,3.31Z"/>
</svg>