<?xml version="1.0" encoding="UTF-8"?>
<svg id="Layer_1" data-name="Layer 1" xmlns="http://www.w3.org/2000/svg" viewBox="0 0 24 24">
  <path d="M18.83,2.09s.03.3.14.31l.65-.19.2.36.74-.18.25.67-.08-.5,2.86-.34c.05.38-.33.47-.46.8-.66,1.69-.24,4.5-.74,6.5-.07.29-.26.86-.36,1.15-.33.91-1.25,2.35-1.86,3.1-.72.9-1.52,1.5-2.38,2.25-.98.87-3.23,2.06-4.77,2.63-.6.22-2.6.85-3.14.86-1.66.03-3-.96-4.5-1.45-.92.43-1.96.81-2.77,1.43s-1.18,1.97-2.23,1.91c0-1.96,4.18-3.26,4.72-4.15.44-.73-.11-1.22-.17-1.84-.3-3.27,1.4-5.71,3.26-7.98,1.19-1.45,2.06-2.36,3.71-3.35.41-.25,1.02-.78,1.26-.93.18-.1.51.07.72-.06.15-.09.17-.36.28-.42.36-.22,4.4-.72,4.68-.57Z"/>
</svg>