<?xml version="1.0" encoding="UTF-8"?>
<svg id="Layer_1" data-name="Layer 1" xmlns="http://www.w3.org/2000/svg" viewBox="0 0 24 24">
  <path d="M23.6,1.98c.11.09-1.42,2.09-1.56,2.36-.45.91-.55,2.05-.89,2.95s-.76,1.82-1.13,2.71c-.6,1.47-1.47,2.83-2.58,3.99-.9.95-2.13,1.8-3.01,2.54-1.8,1.52-5.46,4.06-7.97,3.62-.61-.11-1.17-.57-1.8-.38-.24.07-1.5,1.19-2.05,1.47-.31.16-2.04.91-2.22.74.12-.98,1.64-1.07,2.51-1.57.43-.25,1.39-.87,1.43-1.38.02-.31-.26-.84-.27-1.29,0-.35.12-1.23.22-1.57.13-.45.33-.37.43-.56,1.5-2.96,3.08-4.8,5.31-7.2.61-.66,1.82-2.25,2.62-2.77,2.72-1.78,5.09-1.77,8.03-2.52,1.02-.26,1.94-.85,2.94-1.15Z"/>
</svg>