<?xml version="1.0" encoding="UTF-8"?>
<svg id="Layer_1" data-name="Layer 1" xmlns="http://www.w3.org/2000/svg" viewBox="0 0 24 24">
  <path d="M23.71,1.61c-.46.92-.09,2.46-.25,3.35-.17.98-1.31,4.06-1.81,4.84-.59.91-1.96,2.5-2.87,3.44-2.24,2.3-6.24,3.93-9.48,4.61-1.44.3-3.99.31-5.18.68-.37.12-1.09.88-1.58,1.16-.72.43-1.52.73-2.25,1.13-.13-1.39,1.12-1.31,2.07-1.86.36-.21,1.28-.78,1.49-1.08,1.22-1.78,2.27-4.95,3.3-6.95.45-.87,1.75-3.28,2.31-3.92s2.47-1.86,3.25-2.41c1.06-.75,1.16-.64,2.23-1.1,2.92-1.24,3.12-1.46,6.41-1.46.84,0,1.6-.14,2.37-.45Z"/>
</svg>