<?xml version="1.0" encoding="UTF-8"?>
<svg id="Layer_1" data-name="Layer 1" xmlns="http://www.w3.org/2000/svg" viewBox="0 0 24 24">
  <path d="M23.36.45c.21.18-.66.72-.66.92-1.89,1.74-4.09,2.11-6.06,3.75-1.04.87-2.94,2.4-3.75,3.39-.25.3-.75,1.42-.88,1.54-1.06.96-1.36,2.09-2.17,3.3-.97,1.45-3.19,4.35-4.71,5.21-1.05.59-2.51.37-3.14,1.81l-1.55,2.68c-.61-1.62,1.4-2.76,1.9-4,.3-.76.26-1.82.49-2.67.72-2.74,2.56-4.58,4.52-6.46,2.39-2.29,5.36-4.44,8.24-6.2,2.35-1.44,3.76-1.51,6.07-2.4.29-.11,1.58-.98,1.71-.86Z"/>
</svg>