<svg xmlns="http://www.w3.org/2000/svg" version="1.1" xmlns:xlink="http://www.w3.org/1999/xlink" width="64" height="64"><svg width="64" height="64" viewBox="0 0 64 64" fill="none" xmlns="http://www.w3.org/2000/svg">
<g clip-path="url(#clip0_906_569)">
<mask id="SvgjsMask1003" style="mask-type:luminance" maskUnits="userSpaceOnUse" x="-8" y="-1" width="80" height="63">
<path d="M71.6898 36.1163L7.40253 -1L-7.17887 24.2557L57.1084 61.372L71.6898 36.1163Z" fill="white"></path>
</mask>
<g mask="url(#mask0_906_569)">
<path d="M29.4844 16.973C29.0798 16.6137 28.7672 16.1605 28.7667 15.7223C28.7662 15.2844 29.078 14.862 29.5013 14.5519C29.9246 14.2419 30.4587 14.0444 31.1332 13.9554C31.8077 13.8665 32.6218 13.8866 33.2614 14.0555C33.9006 14.2248 34.3652 14.5429 34.7018 14.9467C35.0386 15.3503 35.2475 15.839 35.1709 16.2934C35.094 16.7483 34.7325 17.1681 34.2845 17.4412C33.8365 17.7148 33.3029 17.8413 32.7213 17.8867C32.14 17.9323 31.5109 17.8971 30.9481 17.7471C30.3854 17.5969 29.8891 17.332 29.4844 16.973Z" fill="black"></path>
<path d="M31.6492 26.3771C31.1422 25.9408 30.6928 25.5211 30.4893 25.1258C30.2858 24.73 30.3276 24.3577 30.501 24.0766C30.674 23.7953 30.9785 23.6049 31.4402 23.5569C31.9021 23.5093 32.5206 23.6039 33.2597 23.8361C33.9986 24.0686 34.8579 24.4385 35.7358 24.8989C36.6133 25.3591 37.5094 25.9098 38.284 26.4799C39.0587 27.0499 39.7116 27.6383 40.1576 28.1801C40.6036 28.722 40.8425 29.2164 40.8606 29.6061C40.8789 29.9956 40.6768 30.2799 40.3026 30.4035C39.9279 30.5268 39.3812 30.4889 38.6912 30.2915C38.0012 30.094 37.1685 29.7369 36.2433 29.2816C35.3185 28.8266 34.3017 28.2738 33.5109 27.7702C32.7204 27.2674 32.1562 26.8134 31.6492 26.3771Z" fill="black"></path>
<path d="M6.93834 13.5658C6.98024 12.5782 7.98559 11.314 8.7653 10.8463C9.54476 10.3791 10.0987 10.7089 10.6797 11.0877C11.2612 11.4662 11.8703 11.8933 12.521 12.3856C13.1717 12.8778 13.8647 13.4349 14.5739 14.0281C15.2825 14.6216 16.0074 15.2515 16.7319 15.9197C17.4569 16.5876 18.1818 17.2942 18.7711 17.9615C19.3605 18.6292 19.8146 19.2581 19.9674 19.711C20.12 20.1639 19.971 20.4411 19.5039 20.498C19.0362 20.5548 18.2497 20.3914 17.2058 20.026C16.1619 19.6604 14.8602 19.0932 13.4065 18.3844C11.9529 17.6757 10.3466 16.8249 9.08243 16.0446C7.81856 15.2639 6.89643 14.5535 6.93834 13.5658Z" fill="black"></path>
<path d="M48.5218 31.59C48.7191 31.0874 48.8712 30.5879 49.1719 30.4495C49.4728 30.311 49.9222 30.5333 50.4022 30.8C50.8823 31.0666 51.3925 31.3771 51.8897 31.7249C52.3865 32.0724 52.8703 32.4568 53.294 32.8596C53.718 33.2625 54.0818 33.6831 54.3633 34.1021C54.6446 34.5215 54.8434 34.9392 54.9446 35.3188C55.0449 35.6984 55.048 36.0395 54.9401 36.2887C54.8322 36.5378 54.6138 36.6955 54.2928 36.7347C53.9719 36.774 53.5489 36.6956 53.063 36.5225C52.5773 36.3489 52.0283 36.0804 51.4738 35.7679C50.9189 35.4552 50.358 35.0989 49.7516 34.6474C49.1453 34.1959 48.4933 33.6496 48.288 33.1237C48.0833 32.598 48.3247 32.0923 48.5218 31.59Z" fill="black"></path>
<path d="M47.4059 25.6744C47.0729 25.9884 46.6822 26.2598 46.1378 26.0273C45.5933 25.795 44.8957 25.06 44.6109 24.4308C44.3259 23.8021 44.4544 23.2796 44.6522 22.8573C44.8503 22.4351 45.1175 22.1127 45.5655 22.1069C46.0134 22.1011 46.6423 22.4129 47.0703 22.6766C47.4988 22.9405 47.7265 23.1569 47.8965 23.4767C48.0666 23.7971 48.1786 24.2211 48.097 24.612C48.0149 25.0025 47.7389 25.3603 47.4059 25.6744Z" fill="black"></path>
<path d="M29.4956 21.7895C28.8311 21.8224 28.3705 21.999 28.0949 22.4462C27.8193 22.8935 27.7277 23.6113 27.9583 24.2867C28.1892 24.9628 28.7418 25.5962 29.586 26.3169C30.4306 27.0379 31.5667 27.846 32.8777 28.6841C34.1889 29.5218 35.6754 30.3886 36.8719 31.0124C38.0683 31.6362 38.9746 32.0173 39.7326 32.2406C40.4903 32.4638 41.0994 32.5297 41.6012 32.443C42.1032 32.3564 42.4973 32.1178 42.7479 31.739C42.9984 31.3602 43.1054 30.8413 42.9863 30.22C42.867 29.5987 42.5223 28.8754 41.6287 27.9611C40.7351 27.0474 39.2929 25.9426 38.0291 25.1039C36.7655 24.2652 35.6804 23.6926 34.688 23.2156C33.6958 22.7388 32.7966 22.3584 31.9129 22.1129C31.0288 21.8675 30.1597 21.7566 29.4955 21.7891M29.6056 19.6054C32.6672 20.4436 34.865 21.5665 36.8048 22.7309C38.8786 23.9764 40.6581 25.2694 41.8095 26.2322C42.3847 26.7136 42.8032 27.1125 43.2676 27.3994C43.732 27.6869 44.2415 27.8629 44.526 27.7467C44.8102 27.631 44.8689 27.2235 44.9721 26.9443C45.0755 26.6658 45.2234 26.5161 45.4229 26.4634C45.6225 26.4103 45.8738 26.454 46.1543 26.5868C46.435 26.7192 46.7441 26.941 46.9737 27.1995C47.2035 27.4587 47.3532 27.7551 47.4047 28.1396C47.4561 28.5241 47.4096 28.9961 47.3016 29.4253C47.1935 29.8544 47.0245 30.2398 46.8363 30.6187C46.6481 30.9975 46.4411 31.3699 46.3911 31.7966C46.3415 32.223 46.4498 32.7035 46.745 33.1914C47.0404 33.6788 47.5232 34.1729 48.1414 34.6937C49.3784 35.7347 51.1571 36.8816 52.388 37.5225C53.003 37.843 53.4816 38.037 53.9291 38.176C54.824 38.4539 55.5954 38.5129 56.087 38.3548C56.3328 38.2755 56.5084 38.1421 56.61 37.8834C56.712 37.6251 56.7396 37.2413 56.7276 36.7993C56.7154 36.3577 56.6643 35.8574 56.3911 35.1547C56.118 34.4513 55.6231 33.5447 54.4931 32.5541C53.3634 31.5636 51.598 30.4897 50.4512 29.7694C49.3046 29.0493 48.7765 28.6829 48.4536 28.3731C48.1311 28.0632 48.0144 27.8106 48.0757 27.6554C48.137 27.5002 48.3766 27.4425 48.6089 27.441C48.8419 27.4393 49.0672 27.493 49.3203 27.5921C49.8263 27.7905 50.4423 28.1701 52.1786 29.2321C53.0465 29.7634 54.1949 30.4654 55.2024 31.2403C56.2102 32.0157 57.0773 32.8641 57.7089 33.6887C58.3404 34.5126 58.7359 35.3128 58.9955 35.9044C59.2555 36.4953 59.3794 36.878 59.4874 37.2808C59.7029 38.0854 59.8531 38.9705 59.5681 39.8095C59.4255 40.2292 59.1741 40.6374 58.7015 40.8928C58.2289 41.1477 57.5342 41.2498 56.7813 41.2083C56.028 41.1669 55.2161 40.9822 54.1985 40.5589C53.1806 40.135 51.9564 39.4721 51.0185 39.0261C50.0805 38.5797 49.4284 38.3505 48.9809 38.2626C48.5336 38.1747 48.2908 38.2286 48.1918 38.3783C48.092 38.5284 48.1362 38.7744 48.4802 39.2235C48.8243 39.6721 49.469 40.3232 50.424 41.2083C51.3796 42.0934 52.6457 43.2121 53.6706 44.2435C54.6953 45.2751 55.4792 46.2192 56.0736 47.1137C56.6679 48.0085 57.0727 48.8542 57.4548 49.7228C57.8365 50.5917 58.1953 51.4832 58.5113 52.4239C58.8271 53.3645 59.1014 54.3537 59.2182 55.2665C59.3355 56.1797 59.2959 57.0159 59.1149 57.6739C58.9339 58.3313 58.6114 58.8107 58.2728 59.0785C57.9341 59.3464 57.5799 59.4031 57.1189 59.2886C56.6582 59.1739 56.0905 58.888 55.5912 58.5066C55.092 58.1251 54.6607 57.6488 54.3288 57.0705C53.9974 56.4919 53.7646 55.8119 53.5968 55.1394C53.4294 54.4674 53.3262 53.8029 53.1811 52.9604C52.891 51.2762 52.433 48.8813 51.8213 47.1057C51.5153 46.2178 51.1705 45.4853 50.7049 44.8031C50.2399 44.1209 49.6534 43.4893 49.0165 42.7931C47.7427 41.4 46.2659 39.7473 44.9291 38.949C43.5921 38.1509 42.3952 38.2064 41.6547 38.8174C41.2844 39.1228 41.0282 39.567 40.8381 39.9245C40.6479 40.2817 40.5238 40.5526 40.383 40.9765C40.2428 41.4005 40.0862 41.9776 39.8829 42.6954C39.6797 43.413 39.4294 44.2712 39.0342 45.1081C38.6395 45.9453 38.0999 46.7621 37.6055 47.3258C37.1113 47.8893 36.6626 48.1999 36.1367 48.3254C35.6107 48.4511 35.0076 48.3915 34.4138 48.1829C33.8196 47.9743 33.2346 47.6169 32.8349 47.1961C32.4357 46.7755 32.2219 46.2917 32.3865 45.6963C32.5515 45.1011 33.095 44.3949 33.7109 43.7033C34.327 43.0113 35.0151 42.3332 35.5666 41.6828C36.1178 41.0328 36.533 40.4106 36.8526 39.8418C37.1725 39.2725 37.3967 38.7568 37.6328 38.2005C37.8693 37.6443 38.117 37.0476 38.2346 36.5286C38.3523 36.0095 38.3404 35.5684 38.1494 35.0712C37.9589 34.5737 37.5895 34.0199 37.1697 33.5573C36.7497 33.0951 36.2802 32.7241 35.689 32.2847C33.3253 30.5277 29.0307 27.6766 26.8381 27.0515C26.29 26.8952 25.873 26.8782 25.4827 27.0494C24.7021 27.3923 24.0259 28.4893 23.6966 29.3671C23.5318 29.8059 23.4537 30.1897 23.3201 30.6739C23.1868 31.1577 22.9978 31.7418 22.6818 32.27C22.3657 32.7981 21.9218 33.271 21.4293 33.7366C20.4442 34.6678 19.2634 35.5698 18.0031 36.1839C17.3732 36.4906 16.7235 36.7256 16.1295 36.7636C15.5354 36.8019 14.9974 36.6426 14.5555 36.4336C14.1133 36.2245 13.7668 35.9646 13.5679 35.6637C13.3696 35.3628 13.3187 35.0206 13.4105 34.7131C13.5025 34.4052 13.7369 34.1323 14.1268 33.8456C14.5166 33.5589 15.0613 33.2588 15.5434 32.9473C16.5068 32.3247 17.2193 31.6579 18.0512 30.6633C18.4673 30.1659 18.9132 29.5865 19.2368 28.9384C19.56 28.2901 19.7612 27.5729 19.8962 27.0168C20.0312 26.4613 20.1001 26.0674 20.0551 25.6984C20.0106 25.3296 19.8526 24.9862 19.5879 24.683C19.3237 24.38 18.9527 24.1174 18.3962 23.8664C17.8401 23.6157 17.0984 23.3761 16.1792 23.1341C15.2605 22.8923 14.1639 22.6473 13.0762 22.3074C11.9884 21.9674 10.9091 21.5326 9.62267 20.8489C7.04924 19.4819 3.64584 17.1206 2.04195 15.4487C1.24026 14.6122 0.888181 13.9482 0.700863 13.1918C0.513299 12.4359 0.490064 11.5873 0.77941 10.7061C1.06851 9.82528 1.66998 8.91169 2.32309 8.11253C2.97607 7.3136 3.68024 6.6294 4.33303 6.27571C4.98603 5.92214 5.58728 5.89971 6.1621 5.96858C6.73714 6.03758 7.28608 6.1978 7.66975 6.478C8.05323 6.75754 8.27101 7.15681 8.10842 7.54135C7.94592 7.92623 7.40282 8.29681 6.89577 8.70244C6.38803 9.10826 5.91644 9.54946 5.55269 10.0632C4.82501 11.09 4.53 12.4076 4.60812 13.3101C4.64697 13.7619 4.77907 14.1092 4.96845 14.4601C5.15758 14.8115 5.40385 15.1654 5.94999 15.6289C6.49625 16.0922 7.34209 16.6646 8.22557 17.2168C9.10879 17.7695 10.0297 18.302 11.0367 18.8199C12.0435 19.3382 13.1369 19.841 14.3025 20.2902C15.4678 20.7388 16.7046 21.1334 17.7098 21.4303C18.7143 21.7273 19.4866 21.9273 20.1011 22.0575C20.716 22.1883 21.1718 22.2494 21.5175 22.2302C21.8632 22.2109 22.0977 22.1115 22.2773 21.8762C22.4572 21.6404 22.5821 21.2691 22.5437 20.8426C22.5055 20.4159 22.3043 19.9345 21.8215 19.3406C21.3385 18.7463 20.5735 18.0394 19.9105 17.4127C19.2474 16.786 18.686 16.2387 17.9827 15.5807C17.2791 14.9232 16.4336 14.1547 15.2919 13.2308C14.1503 12.3065 12.7129 11.2267 11.6772 10.4575C10.6417 9.68895 10.0082 9.23086 9.60332 8.70333C9.19835 8.17547 9.02186 7.57749 9.01661 7.13822C9.01191 6.69898 9.17919 6.41916 9.46578 6.34242C9.75207 6.26523 10.1583 6.3915 10.6288 6.80246C11.0995 7.21299 11.6352 7.90781 12.3728 8.68356C13.1105 9.45909 14.0498 10.3154 15.3828 11.409C17.0728 12.7962 19.3952 14.5658 21.2666 15.9076C21.7307 16.2405 22.7114 16.7169 23.4151 17.0189C24.1192 17.3211 24.5456 17.4485 24.9225 17.488C25.2992 17.5274 25.6254 17.4787 25.864 17.3603C26.1022 17.2417 26.2529 17.0525 26.4361 16.9059C26.6197 16.7591 26.8365 16.6538 27.0955 16.6264C27.3545 16.5989 27.6564 16.649 27.9551 16.7662C28.2539 16.884 28.5498 17.0683 28.7357 17.2853C28.922 17.5025 28.9981 17.7522 28.9863 17.993C28.9738 18.2337 28.8722 18.4651 28.8258 18.6871C28.779 18.9088 28.7872 19.1212 28.9622 19.2872C29.1374 19.4528 29.4785 19.5722 29.6065 19.6059" fill="black"></path>
</g>
</g>
<defs>
<clipPath id="SvgjsClipPath1002">
<rect width="64" height="64" fill="white"></rect>
</clipPath>
</defs>
</svg><style>@media (prefers-color-scheme: light) { :root { filter: none; } }
@media (prefers-color-scheme: dark) { :root { filter: none; } }
</style></svg>