<?xml version="1.0" encoding="UTF-8"?>
<svg id="Layer_2" xmlns="http://www.w3.org/2000/svg" xmlns:xlink="http://www.w3.org/1999/xlink" viewBox="0 0 3000 1181.81">
  <defs>
    <style>
      .cls-1 {
        fill: none;
      }

      .cls-2 {
        clip-path: url(#clippath);
      }
    </style>
    <clipPath id="clippath">
      <rect class="cls-1" width="3000" height="1181.81"/>
    </clipPath>
  </defs>
  <g id="Layer_1-2" data-name="Layer_1">
    <g class="cls-2">
      <path d="M1136.03,183.35c-21.42-4.41-41.52-13.98-50.39-29.35-8.87-15.36-6.49-36.5,2.06-55.96,8.55-19.46,23.25-37.21,45.06-54,21.81-16.79,50.71-32.58,76.51-39.61,25.79-7.01,48.48-5.26,68.42,2.09,19.94,7.34,37.13,20.26,43.63,37.76,6.5,17.52,2.33,39.58-7.83,58.24-10.15,18.68-26.27,33.93-45.71,47.31-19.42,13.38-42.15,24.89-64.88,31.03-22.73,6.13-45.45,6.89-66.87,2.49"/>
      <path d="M1401.82,469.52c-26.56-5.04-50.77-10.66-65.88-20.41-15.12-9.77-21.18-23.68-20.79-37.06.37-13.38,7.18-26.23,22.37-37.27,15.2-11.03,38.76-20.24,69.32-27.07,30.56-6.81,68.11-11.24,108.14-12.87,40.01-1.63,82.5-.46,121.13,3.85,38.63,4.31,73.37,11.73,99.93,21.71,26.56,9.98,44.91,22.49,53.42,35.8,8.51,13.3,7.18,27.37-3.42,39.29-10.62,11.92-30.52,21.67-58.66,28.72-28.14,7.05-64.5,11.39-106.08,14.16-41.56,2.77-88.32,3.97-126.17,2.32-37.83-1.63-66.75-6.13-93.31-11.17"/>
      <path d="M278.09,520.61c-18.49-35.51-8.85-100.25,8.99-132.46,17.84-32.19,43.89-31.84,71.88-30.32,28,1.5,57.95,4.15,90.67,8.24,32.72,4.09,68.23,9.6,105.04,16.05,36.79,6.47,74.89,13.89,113.75,22.66,38.87,8.75,78.52,18.86,112.63,30.34,34.12,11.49,62.72,24.36,77.22,37.16,14.49,12.8,14.88,25.55-.32,37.01-15.22,11.47-46.05,21.67-89.97,30-43.92,8.32-100.94,14.79-166.14,19.37-65.2,4.58-138.61,7.27-198.62,5.5-60.01-1.79-106.64-8.04-125.13-43.55"/>
      <path d="M2097.68,310.59c-3.25-21.64-8.02-42.25-.29-53.2,7.73-10.96,27.95-12.26,50.14-12.63s46.32.19,70.75,2.32c24.41,2.13,49.11,5.82,72.08,11.37,22.98,5.55,44.21,12.94,62.53,21.94,18.32,9.02,33.72,19.65,44.93,30.92,11.18,11.29,18.18,23.2,19.44,34.13,1.26,10.93-3.2,20.89-13.64,28.77-10.44,7.88-26.83,13.7-47.33,17.47-20.51,3.75-45.15,5.45-70.87,5.72-25.74.27-52.57-.87-82.92-4.43-30.34-3.56-64.2-9.52-82.01-23.82-17.79-14.3-19.56-36.94-22.81-58.56"/>
      <path d="M1939.09,125.59c-5.31,17.77-13.5,35.21-37.25,38.08-23.75,2.88-63.02-8.78-85.7-25.09-22.68-16.29-28.74-37.23-30.35-56.06-1.6-18.83,1.24-35.56,16.8-44.84,15.56-9.28,43.87-11.08,64.18-10.5,20.33.58,32.67,3.56,45.08,11.34,12.43,7.8,24.92,20.41,29.96,35.78,5.02,15.37,2.59,33.52-2.72,51.29"/>
      <path d="M1233.74,352.15c-22.59,14.62-35.14,30.15-35.75,51.43-.61,21.28,10.69,48.33,32.41,67.36,21.74,19.05,53.88,30.08,97.99,38.27,44.13,8.19,100.22,13.53,163.04,16.38,62.82,2.83,132.36,3.13,186.84.78,54.48-2.35,93.9-7.34,124.94-14.86,31.03-7.52,53.68-17.55,69.49-30.76,15.82-13.21,24.79-29.57,25.91-47.94,1.11-18.37-5.63-38.75-22.35-58.14-16.73-19.39-43.41-37.79-93.16-51.77-49.74-13.96-122.54-23.51-183.72-27.34-61.17-3.83-110.72-1.94-155.09,1.43-44.36,3.37-83.52,8.24-119.41,17.53-35.9,9.3-68.56,23.02-91.15,37.62M1193.46,273.27c124.09-32.62,223.7-37.74,315.12-36.18,97.75,1.69,186.16,11.01,245.91,21.47,29.86,5.24,52.57,10.76,74.62,11.42,22.06.68,43.45-3.47,51.06-13.31,7.61-9.82,1.43-25.31-.6-37.2-2.01-11.87.14-20.12,6.06-26.01,5.91-5.91,15.59-9.47,28.09-10.49,12.5-1.04,27.8.48,41.06,4.9,13.28,4.44,24.51,11.81,34.08,24.26s17.48,29.96,22.37,47.21c4.89,17.25,6.76,34.2,7.83,51.31,1.07,17.11,1.35,34.37,8.22,50.36,6.88,15.97,20.38,30.64,40.57,41.78,20.19,11.12,47.07,18.68,79.23,24.43,64.33,11.47,149.76,15.68,205.79,13.23,28-1.21,48.67-4.1,67.14-8.29,36.94-8.38,65.13-21.94,79.14-37.45,7-7.76,10.45-16,8.78-27.14-1.65-11.13-8.44-25.16-17.79-40.43-9.35-15.25-21.25-31.77-45.01-50.9-23.77-19.15-59.41-40.94-118.98-52.81-59.55-11.87-143.04-13.79-197.73-15.83-54.68-2.04-80.57-4.2-98.13-8.53-17.55-4.34-26.74-10.84-27.73-17.53-.99-6.69,6.23-13.57,14.33-18.33,8.12-4.78,17.09-7.46,27.95-9.11,21.72-3.29,50.95-2.45,133.18-.36,41.11,1.06,95.49,2.43,146.41,9.21,50.94,6.79,98.43,19,137.2,35.14,38.75,16.12,68.76,36.19,89.8,51.69,21.04,15.47,33.11,26.39,45.03,38.34,23.8,23.87,46.94,51.89,53.92,87.11,3.49,17.62,2.94,37.04-8.44,55.58-11.39,18.52-33.64,36.18-60.83,49.98-27.2,13.81-59.35,23.78-103.52,29.54-44.19,5.75-100.43,7.29-142.27,10.64-41.85,3.34-69.3,8.51-86.74,14.49-17.43,5.98-24.84,12.79-25.28,20.05-.46,7.29,6.06,15.03,27.17,23.82,21.11,8.77,56.83,18.56,108.14,30.27,51.33,11.7,118.25,25.31,174.96,40.74,56.71,15.44,103.22,32.69,142.1,52.04,38.88,19.36,70.14,40.84,101.06,63.58,30.92,22.76,61.49,46.78,91.56,73.39,30.06,26.61,59.65,55.77,82.18,85.44,22.56,29.67,38.07,59.82,45.03,86.58,6.95,26.74,5.35,50.1-1.09,66.36-6.44,16.26-17.69,25.43-36.14,30.75-18.44,5.31-44.09,6.78-69.27,3.51-25.18-3.27-49.9-11.25-73.2-24.82-23.29-13.59-45.18-32.74-64.64-52.94-19.44-20.19-36.48-41.42-58.58-68.05-44.19-53.23-108.61-128-165.9-177.92-28.65-24.96-55.52-43.68-85.6-58.19-30.06-14.52-63.35-24.8-99.71-36.33-72.73-23.08-157.81-51.16-220.73-52.09-62.92-.92-103.69,25.28-117.26,61.73-6.79,18.22-6.78,39-6.21,55.4.56,16.39,1.69,28.41,5.33,46.14,3.66,17.72,9.84,41.15,17.23,70.46,7.39,29.3,15.97,64.49,19.05,101.87,3.1,37.38.72,76.98-5.19,106.78-5.91,29.79-15.34,49.78-31.21,64.84-15.87,15.07-38.18,25.2-63.18,29.91-25.01,4.72-52.71,4.03-75.2-2.64-22.47-6.67-39.73-19.32-46-43.55-6.25-24.23-1.5-60.03,6.08-96.78,7.58-36.77,17.96-74.51,24.12-108.51,6.16-33.98,8.12-64.23,7.81-90.67-.31-26.46-2.88-49.1-5.86-73.41-2.96-24.31-6.35-50.27-12.72-70.87-6.37-20.6-15.7-35.84-32.43-49.42-16.72-13.6-40.84-25.55-64.88-33.28-24.04-7.71-47.97-11.22-77.54-14.66-118.23-13.77-326.15-26.81-415.52-4.32-22.34,5.62-37.28,13.47-47.48,27.39-20.39,27.85-21.89,80.05-15.68,117.53,3.1,18.74,8.12,33.79,13.23,53.49,5.11,19.68,10.3,44.01,9.91,68.95-.39,24.94-6.37,50.53-14.2,76.85-15.66,52.64-38.76,108.22-70.46,155.31-15.85,23.53-33.84,44.94-53.86,58.31-20.02,13.38-42.07,18.69-61.76,20.31-19.7,1.62-37.08-.48-50.12-7.01-13.02-6.54-21.72-17.52-24.72-30.17-3-12.67-.31-27,7.54-44.96,7.85-17.96,20.85-39.53,31.43-60.23,21.14-41.37,32.6-79.21,41.62-130.97,4.51-25.89,8.41-55.26,6.64-84.56-1.79-29.3-9.24-58.55-15.75-80.8-6.5-22.23-12.05-37.45-21.08-49.49-9.01-12.04-21.48-20.89-36.87-26.17-15.37-5.28-33.66-6.98-58.21-4.51-24.53,2.47-55.33,9.09-92.39,19.22-37.04,10.13-80.37,23.75-125.31,33.86-44.94,10.11-91.5,16.72-150.34,18.79-117.69,4.17-284.52-9.74-374.44-35.92-44.96-13.11-70.7-29.28-92.54-52.03-21.84-22.73-39.8-52.04-47.48-88.83-7.68-36.77-5.09-81.02,1.62-122.3,6.71-41.27,17.53-79.55,33.23-105.19,15.71-25.64,36.3-38.61,57.81-47.84,21.52-9.23,43.97-14.73,63.06-12.67,19.07,2.04,34.76,11.64,36.84,28.43,2.09,16.8-9.43,40.81-18.98,65.32-9.57,24.53-17.16,49.57-19.51,74.97-4.72,50.78,11.58,103,32.55,133.09,10.49,15.07,22.13,24.58,35.85,33.06,13.72,8.5,29.49,15.93,57.97,21.13,28.48,5.19,69.65,8.14,111.73,9.62,42.08,1.5,85.07,1.53,130.78-.7,45.71-2.21,94.14-6.72,144.01-14.57,49.85-7.87,101.11-19.08,142.29-29.03,41.16-9.93,72.23-18.56,96.37-26.44,24.16-7.87,41.35-14.96,53.06-22.64,11.71-7.68,17.91-15.92,19.44-27.82,1.53-11.92-1.6-27.48-11.56-41.67-9.96-14.2-26.73-27.02-55.63-38.08-28.91-11.07-69.97-20.38-105.84-28.94-35.87-8.56-66.58-16.39-104.49-25.23-37.91-8.82-83.03-18.66-141.66-27.95-58.63-9.31-130.76-18.08-182.55-24.09-51.77-5.99-83.2-9.23-108.03-19.54-24.84-10.32-43.1-27.73-52.16-43.04-9.04-15.32-8.84-28.53-.36-37.03,8.46-8.51,25.23-12.31,50-7.42,24.77,4.87,57.56,18.4,99.05,30.68,41.49,12.27,91.67,23.29,160.42,34.66,87.18,14.44,204.22,29.49,296.83,38.66,22.97,2.28,66.92-.87,97.65-4.53,30.75-3.66,48.25-7.83,62.24-14.08,13.98-6.25,24.41-14.57,30.37-23.56,5.94-8.99,7.39-18.68,10.84-27.54,3.46-8.87,8.92-16.96,17.43-23.17,8.51-6.21,20.09-10.57,32.91-12.51,12.84-1.92,26.92-1.45,37.81,2.4,10.91,3.85,18.62,11.07,23.07,19.76,4.43,8.7,5.55,18.88,8.41,27.61,2.84,8.73,7.42,16.02,16.9,18.3,9.48,2.26,23.83-.46,28.99-1.87"/>
    </g>
  </g>
</svg>