<?xml version="1.0" encoding="UTF-8"?>
<svg xmlns="http://www.w3.org/2000/svg" id="Layer_1" data-name="Layer 1" viewBox="0 0 24 24">
  <path d="M2.5,6c-1.379,0-2.5,1.121-2.5,2.5v7c0,1.379,1.121,2.5,2.5,2.5h2.303l7.197,5.986V-.016L4.802,6H2.5ZM11,2.123V21.854l-5.836-4.854H2.5c-.827,0-1.5-.673-1.5-1.5v-7c0-.827,.673-1.5,1.5-1.5h2.665L11,2.123Zm13,9.877c0,4.963-4.037,9-9,9h-1v-1h1c4.411,0,8-3.589,8-8s-3.589-8-8-8h-1v-1h1c4.963,0,9,4.037,9,9Zm-9,5h-1v-1h1c2.206,0,4-1.794,4-4s-1.794-4-4-4h-1v-1h1c2.757,0,5,2.243,5,5s-2.243,5-5,5Z"/>
</svg>
