<?xml version="1.0" encoding="UTF-8"?>
<svg id="Layer_1" data-name="Layer 1" xmlns="http://www.w3.org/2000/svg" viewBox="0 0 18 18">
  <path d="M.02,2.28h.74v3.12l.63-1.14C3.73.5,8.55-1.02,12.64.8c3.44,1.53,5.66,5.17,5.31,8.95h-.77c.16-1.2-.04-2.47-.46-3.6C15.41,2.59,11.75.37,7.97.85c-2.93.37-5.61,2.41-6.62,5.19h3.16v.74s-3.53,0-3.53,0c-.14,0-.52-.21-.63-.31-.16-.16-.24-.4-.33-.6v-3.58Z"/>
  <path d="M13.49,18v-.74h2.33c.76,0,1.43-.79,1.42-1.52s-.68-1.49-1.42-1.49h-2.33v-2.98h4.11v.74h-3.32l-.05.05v1.46h1.77c.43,0,1.12.42,1.4.74,1.07,1.2.59,3.04-.88,3.62l-.51.14h-2.53Z"/>
  <path d="M.02,9.02h.74c.02,1.52.43,2.99,1.21,4.28,1.46,2.4,4.06,3.88,6.87,3.97l.9-.04v.74s-.2,0-.2,0l-.08.04h-1.02c-.2-.05-.43-.05-.64-.08C3.84,17.4.61,14.18.09,10.22c-.03-.21-.02-.44-.08-.64v-.56Z"/>
  <path d="M11.98,18h-.74v-5.51s-1.6,1.65-1.6,1.65l-.54-.51,2.14-2.25c.27-.25.67-.1.74.25v6.37Z"/>
  <polygon points="9 4.14 9 9.75 4.12 9.75 4.12 9.02 8.26 9.02 8.26 4.14 9 4.14"/>
</svg>