<?xml version="1.0" encoding="UTF-8"?>
<svg id="Layer_1" data-name="Layer 1" xmlns="http://www.w3.org/2000/svg" viewBox="0 0 19 18">
  <path d="M19,2.28h-.74s0,3.12,0,3.12l-.63-1.14C15.29.5,10.47-1.02,6.38.8,2.94,2.33.72,5.97,1.07,9.75h.77c-.16-1.2.04-2.47.46-3.6C3.61,2.59,7.26.37,11.05.85c2.93.37,5.61,2.41,6.62,5.19h-3.16s0,.74,0,.74h3.53c.14,0,.52-.21.63-.31.16-.16.24-.4.33-.6v-3.58Z"/>
  <path d="M4.25,18v-.74h2.33c.76,0,1.43-.79,1.42-1.52s-.68-1.49-1.42-1.49h-2.33v-2.98h4.11v.74h-3.32l-.05.05v1.46h1.77c.43,0,1.12.42,1.4.74,1.07,1.2.59,3.04-.88,3.62l-.51.14h-2.53Z"/>
  <path d="M19,9.02h-.74c-.02,1.52-.43,2.99-1.21,4.28-1.46,2.4-4.06,3.88-6.87,3.97l-.9-.04v.74s.2,0,.2,0l.08.04h1.02c.2-.05.43-.05.64-.08,3.95-.52,7.19-3.75,7.7-7.7.03-.21.02-.44.08-.64v-.56Z"/>
  <path d="M2.75,18h-.74v-5.51s-1.6,1.65-1.6,1.65l-.54-.51,2.14-2.25c.27-.25.67-.1.74.25v6.37Z"/>
  <polygon points="10.02 4.14 10.02 9.75 14.89 9.75 14.89 9.02 10.75 9.02 10.75 4.14 10.02 4.14"/>
</svg>